<?xml version="1.0" encoding="utf-8"?>
<!-- Generator: Adobe Illustrator 18.0.0, SVG Export Plug-In . SVG Version: 6.00 Build 0)  -->
<!DOCTYPE svg PUBLIC "-//W3C//DTD SVG 1.1//EN" "http://www.w3.org/Graphics/SVG/1.1/DTD/svg11.dtd">
<svg version="1.1" id="Layer_1" xmlns="http://www.w3.org/2000/svg" xmlns:xlink="http://www.w3.org/1999/xlink" x="0px" y="0px"
	 viewBox="67.6 244 270 309" enable-background="new 67.6 244 270 309" xml:space="preserve">
<g>
	<path fill="#157DC3" d="M159.7,368.4c1.2,0.8,2.4,1.5,3.7,2.2c8.7,4.7,18.9,7.4,29.5,7.4c10,0,19.5-2.4,27.8-6.6
		c1.9-0.9,3.7-2,5.4-3.1c17.3-11,28.7-30.3,28.7-52.3c0-34.2-27.7-61.9-61.9-61.9c-34.2,0.1-62,27.8-62,62
		C130.9,338.1,142.4,357.4,159.7,368.4z"/>
	<g>
		<path fill="#157DC3" d="M242.3,472.6v-35H288v35h19.8c-1-48.5-16.4-87.7-70.5-94.1l-44.4,32.9l-44.7-32.9
			c-56.1,6.7-70.4,48.7-70.4,99.5c0,55.5,51.5,25.9,115,25.9c4.9,0,9.6,0.2,14.3,0.5v-31.8H242.3L242.3,472.6z"/>
		<path fill="#157DC3" d="M307.8,472.6"/>
		<path fill="#157DC3" d="M207.3,504.4v13.9"/>
	</g>
	<polygon fill="#157DC3" points="315.5,480.4 280.3,480.4 280.3,445.1 250,445.1 250,480.4 214.8,480.4 214.8,510.7 250,510.7 
		250,545.9 280.3,545.9 280.3,510.7 315.5,510.7 	"/>
</g>
</svg>
